<svg id="Layer_1" enable-background="new 0 0 256 256" height="512" viewBox="0 0 256 256" width="512" xmlns="http://www.w3.org/2000/svg"><path d="m176.76 65.313c-6.832 0-13.402 1.108-19.558 3.129l-12.662 5.783c-18.25 10.958-30.467 30.938-30.467 53.775 0 34.621 28.066 62.687 62.687 62.687s62.687-28.066 62.687-62.687-28.066-62.687-62.687-62.687zm0 97.521c-19.239 0-34.834-15.596-34.834-34.834 0-19.239 15.596-34.834 34.834-34.834s34.834 15.596 34.834 34.834c.001 19.238-15.595 34.834-34.834 34.834z" fill="#e86c7a"/><path d="m176.761 164.334c20.034 0 36.334-16.3 36.334-36.334s-16.3-36.334-36.334-36.334c-20.035 0-36.335 16.3-36.335 36.334s16.3 36.334 36.335 36.334zm0-69.668c18.381 0 33.334 14.953 33.334 33.334s-14.953 33.334-33.334 33.334-33.335-14.953-33.335-33.334 14.954-33.334 33.335-33.334zm0-30.853c-6.813 0-13.551 1.077-20.026 3.203-.787.258-1.216 1.105-.957 1.893.258.786 1.103 1.22 1.893.957 6.173-2.025 12.596-3.053 19.091-3.053 33.738 0 61.187 27.448 61.187 61.187s-27.448 61.187-61.187 61.187-61.188-27.448-61.188-61.187c0-21.687 11.117-41.309 29.739-52.489.71-.427.94-1.348.514-2.059s-1.35-.938-2.059-.514c-19.533 11.729-31.194 32.313-31.194 55.062 0 35.393 28.794 64.187 64.188 64.187 35.393 0 64.187-28.794 64.187-64.187s-28.796-64.187-64.188-64.187z" fill="#3a312a"/><path d="m128 88.601c-11.492-14.205-29.066-23.288-48.76-23.288-34.621 0-62.687 28.066-62.687 62.687s28.066 62.687 62.687 62.687c19.696 0 37.27-9.083 48.763-23.29zm-48.76 74.233c-19.239 0-34.834-15.596-34.834-34.834 0-19.239 15.596-34.834 34.834-34.834s34.834 15.596 34.834 34.834-15.596 34.834-34.834 34.834z" fill="#e86c7a"/><g fill="#3a312a"><path d="m128.945 166.23c-.644-.522-1.591-.421-2.109.223-11.688 14.447-29.036 22.734-47.597 22.734-33.738 0-61.187-27.448-61.187-61.187s27.448-61.187 61.187-61.187c18.561 0 35.908 8.285 47.595 22.73.52.644 1.466.745 2.109.223.645-.521.744-1.466.223-2.109-12.259-15.153-30.457-23.844-49.927-23.844-35.393 0-64.187 28.794-64.187 64.187s28.794 64.187 64.187 64.187c19.471 0 37.669-8.691 49.929-23.847.521-.644.422-1.589-.223-2.11zm-86.04-38.23c0 20.034 16.3 36.334 36.334 36.334 20.035 0 36.335-16.3 36.335-36.334s-16.3-36.334-36.335-36.334c-20.034 0-36.334 16.3-36.334 36.334zm69.669 0c0 18.381-14.954 33.334-33.335 33.334s-33.334-14.953-33.334-33.334 14.953-33.334 33.334-33.334 33.335 14.953 33.335 33.334z"/><path d="m141.926 126.5c-.828 0-1.5.672-1.5 1.5 0 13.964-4.826 27.62-13.59 38.453-.521.645-.422 1.589.223 2.109.277.225.611.334.942.334.438 0 .871-.19 1.167-.557 9.194-11.365 14.258-25.692 14.258-40.34 0-.827-.672-1.499-1.5-1.499z"/><path d="m128.942 87.436c-.645-.522-1.59-.422-2.109.223-9.195 11.366-14.259 25.693-14.259 40.342 0 .828.672 1.5 1.5 1.5s1.5-.672 1.5-1.5c0-13.964 4.827-27.621 13.591-38.455.522-.645.422-1.59-.223-2.11z"/></g><path d="m176.76 66.81c-3.23 0-6.41.25-9.5.74 29.24 4.57 51.69 29.94 51.69 60.45s-22.45 55.88-51.69 60.45c3.1.49 6.27.74 9.5.74 33.74 0 61.19-27.45 61.19-61.19s-27.45-61.19-61.19-61.19z" fill="#d34e5c"/></svg>