<svg height="348pt" viewBox="0 -10 348.15829 348" width="348pt" xmlns="http://www.w3.org/2000/svg"><path d="m222.554688 77.636719c-5.46875-5.25-5.46875-13.757813 0-19.007813 5.464843-5.25 14.328124-5.25 19.792968 0l98.984375 95.050782-98.980469 95.050781c-5.46875 5.246093-14.332031 5.246093-19.796874 0-5.464844-5.25-5.464844-13.757813 0-19.015625l79.1875-76.035156zm0 0" fill="#d7e9ff"/><g fill="#0e65e5"><path d="m232.453125 259.460938c-5.292969.003906-10.59375-1.933594-14.625-5.808594-4-3.835938-6.203125-8.957032-6.203125-14.421875 0-5.464844 2.203125-10.59375 6.195312-14.4375l74.066407-71.113281-74.0625-71.121094v.003906c-4-3.839844-6.199219-8.964844-6.199219-14.429688 0-5.464843 2.199219-10.589843 6.199219-14.425781 8.070312-7.746093 21.1875-7.75 29.253906 0l98.980469 95.046875c1.339844 1.289063 2.101562 3.066406 2.101562 4.925782 0 1.859374-.761718 3.636718-2.101562 4.921874l-98.984375 95.050782c-4.027344 3.875-9.328125 5.808594-14.621094 5.808594zm0-197.925782c-1.886719 0-3.773437.671875-5.171875 2.019532-1.289062 1.238281-2 2.867187-2 4.582031 0 1.710937.710938 3.335937 2 4.578125l79.183594 76.042968c1.339844 1.289063 2.101562 3.066407 2.101562 4.925782s-.761718 3.636718-2.101562 4.925781l-79.183594 76.03125c-1.289062 1.242187-2 2.875-2 4.589844 0 1.710937.710938 3.339843 2 4.578125 2.804688 2.6875 7.539062 2.699218 10.332031.003906l93.867188-90.128906-93.859375-90.132813c-1.402344-1.34375-3.289063-2.015625-5.167969-2.015625zm0 0"/><path d="m307.199219 41.039062c-3.773438 0-6.824219-3.054687-6.824219-6.828124v-27.304688c0-3.769531 3.050781-6.828125 6.824219-6.828125 3.773437 0 6.828125 3.058594 6.828125 6.828125v27.304688c0 3.773437-3.054688 6.828124-6.828125 6.828124zm0 0"/><path d="m320.851562 27.386719h-27.304687c-3.773437 0-6.828125-3.058594-6.828125-6.828125 0-3.769532 3.054688-6.824219 6.828125-6.824219h27.304687c3.773438 0 6.828126 3.054687 6.828126 6.824219 0 3.769531-3.054688 6.828125-6.828126 6.828125zm0 0"/><path d="m191.148438 327.757812c-3.773438 0-6.828126-3.054687-6.828126-6.824218v-27.308594c0-3.769531 3.054688-6.824219 6.828126-6.824219 3.773437 0 6.824218 3.054688 6.824218 6.824219v27.308594c0 3.769531-3.050781 6.824218-6.824218 6.824218zm0 0"/><path d="m204.800781 314.105469h-27.308593c-3.773438 0-6.824219-3.054688-6.824219-6.828125 0-3.769532 3.050781-6.824219 6.824219-6.824219h27.308593c3.773438 0 6.824219 3.054687 6.824219 6.824219 0 3.773437-3.050781 6.828125-6.824219 6.828125zm0 0"/><path d="m20.480469 170.746094c-3.773438 0-6.828125-3.058594-6.828125-6.828125v-27.304688c0-3.769531 3.054687-6.828125 6.828125-6.828125 3.773437 0 6.828125 3.058594 6.828125 6.828125v27.304688c0 3.769531-3.054688 6.828125-6.828125 6.828125zm0 0"/><path d="m34.132812 157.09375h-27.304687c-3.773437 0-6.828125-3.058594-6.828125-6.828125s3.054688-6.828125 6.828125-6.828125h27.304687c3.773438 0 6.828126 3.058594 6.828126 6.828125s-3.054688 6.828125-6.828126 6.828125zm0 0"/></g><path d="m120.15625 77.636719c-5.46875-5.25-5.46875-13.757813 0-19.007813 5.464844-5.25 14.328125-5.25 19.792969 0l98.984375 95.050782-98.984375 95.050781c-5.464844 5.246093-14.328125 5.246093-19.792969 0-5.46875-5.25-5.46875-13.757813 0-19.015625l79.183594-76.035156zm0 0" fill="#5c9eff"/><path d="m130.054688 259.460938c-5.300782 0-10.59375-1.9375-14.628907-5.808594-4-3.835938-6.199219-8.957032-6.199219-14.421875 0-5.464844 2.199219-10.59375 6.195313-14.4375l74.0625-71.113281-74.058594-71.121094v.003906c-4-3.839844-6.199219-8.964844-6.199219-14.429688 0-5.464843 2.199219-10.589843 6.199219-14.425781 8.066407-7.746093 21.1875-7.746093 29.253907-.003906l98.980468 95.050781c1.339844 1.289063 2.097656 3.066406 2.097656 4.925782 0 1.859374-.757812 3.636718-2.097656 4.921874l-98.980468 95.050782c-4.035157 3.875-9.324219 5.808594-14.625 5.808594zm0-197.925782c-1.886719 0-3.773438.671875-5.175782 2.019532-1.285156 1.238281-2 2.867187-2 4.582031 0 1.710937.714844 3.335937 2 4.578125l79.1875 76.042968c1.339844 1.289063 2.097656 3.066407 2.097656 4.925782s-.757812 3.636718-2.097656 4.925781l-79.1875 76.03125c-1.285156 1.242187-2 2.875-2 4.589844 0 1.710937.714844 3.339843 2 4.578125 2.800782 2.691406 7.546875 2.691406 10.347656 0l93.855469-90.128906-93.855469-90.128907c-1.398437-1.34375-3.285156-2.015625-5.171874-2.015625zm0 0" fill="#0e65e5"/><path d="m24.582031 77.636719c-5.46875-5.25-5.46875-13.757813 0-19.007813 5.464844-5.25 14.328125-5.25 19.792969 0l98.984375 95.050782-98.984375 95.050781c-5.464844 5.246093-14.328125 5.246093-19.792969 0-5.46875-5.25-5.46875-13.757813 0-19.015625l79.183594-76.035156zm0 0" fill="#94c1ff"/><path d="m34.472656 259.457031c-5.292968 0-10.59375-1.933593-14.617187-5.804687-4.003907-3.835938-6.203125-8.957032-6.203125-14.421875 0-5.464844 2.199218-10.59375 6.195312-14.4375l74.066406-71.113281-74.0625-71.121094v.003906c-4-3.839844-6.199218-8.964844-6.199218-14.429688 0-5.464843 2.199218-10.589843 6.203125-14.425781 8.050781-7.734375 21.183593-7.742187 29.253906-.003906l98.976563 95.050781c1.339843 1.289063 2.101562 3.066406 2.101562 4.925782 0 1.859374-.761719 3.636718-2.101562 4.921874l-98.976563 95.050782c-4.035156 3.871094-9.335937 5.804687-14.636719 5.804687zm.007813-197.953125c-1.875 0-3.746094.679688-5.171875 2.050782-1.289063 1.238281-2 2.863281-2 4.578124 0 1.714844.710937 3.339844 2 4.578126v.003906l79.183594 76.042968c1.339843 1.285157 2.101562 3.066407 2.101562 4.921876 0 1.859374-.761719 3.636718-2.101562 4.925781l-79.183594 76.035156c-1.289063 1.242187-2 2.871094-2 4.585937 0 1.714844.710937 3.339844 2 4.582032 2.851562 2.734375 7.492187 2.734375 10.34375-.003906l93.855468-90.125-93.855468-90.128907c-1.425782-1.363281-3.296875-2.046875-5.171875-2.046875zm0 0" fill="#0e65e5"/></svg>